<svg xmlns="http://www.w3.org/2000/svg" viewBox="0 0 1080 1080" fill="none">
  <path
    fill="#0080FF"
    d="M954.1,335.1c-15-102.9-45.5-201.7-87.8-296.6c-18.3-41-56.9-50.6-92.7-24.1c-14.1,10.5-27.9,21.4-42.7,30.8c-193,123.2-402.7,177.1-631.3,151.5c-52.1-5.8-79.2,18.2-73.8,70.1C43.3,437.6,94.3,597.8,182.9,745c61.8,102.7,138.1,192.6,242.4,254.8c82.2,49,170,72.1,265,44.2c92.4-27.2,154-91.5,198.6-173.8c60.9-112.3,78.9-234.5,81.1-386.8C966.7,451.5,962.5,393,954.1,335.1z M207.2,523.5c-6.5,3.9-16.2,2.6-24.4,3.7c-0.7-8.4-4.3-17.9-1.6-24.9c21.4-55.4,61.8-89.9,120.6-97.8c57.3-7.7,104.3,14.3,139.8,59.8c4.6,5.9,3.7,16.1,5.4,24.3c-8.2,1.4-16.7,4.9-24.5,3.9c-23.7-3.1-47.1-8.1-59.3-10.2C299.7,483.5,251.6,496.6,207.2,523.5z M630.7,856.7c-92.9,23.8-196-18.9-245.4-102c-2.8-4.6-4.2-10.1-8.4-20.4c24.8,5.5,43.4,10.9,62.4,13.5c130.4,18.2,243.9-16.6,338.6-109.6c4.3-4.2,10.2-6.6,15.4-9.8c1.6,6.5,4.9,13,4.7,19.4C795,745.1,724.8,832.5,630.7,856.7z M859.4,345.9c-4,6.6-18.3,7.1-28.1,9.7c-3.6,1-7.7,0.2-11.6,0.2c-71.1,2.8-132.1,28.8-183.3,78.6c-5.8,5.7-16.1,6.7-24.4,9.8c-2.5-8.6-8.2-17.8-6.9-25.8c18.4-116.4,144.6-168.7,239.1-99.5C853.3,325.6,867.2,332.9,859.4,345.9z"
  />
</svg>
