<svg xmlns="http://www.w3.org/2000/svg" viewBox="0 0 1080 1080" fill="none">
  <path
    fill="#0080FF"
    d="M998.8,469c-39.3,137-101.1,262.2-191.1,372.9c-59.8,73.6-131,132.3-220.2,167.2c-64.9,25.4-130.8,30.9-197.7,8.6c-51-17-92-48.3-126.5-88.8c-58.6-68.8-93.3-148.9-110.8-236.7c-21.3-107-21.7-214.7-6.1-322.5c13.7-95.1,41.2-186.3,78.5-274.6c4.5-10.7,9-21.5,14.7-31.6c19.5-34.5,54.4-41.9,85.9-17.9c43.5,33,89.1,62.5,138.1,86.8c51.8,25.7,105.8,45.9,161.2,62.4c93.7,27.9,189.2,39.7,286.7,34.7c19-1,37.9-3.1,56.9-4.6c44.7-3.5,69.1,21.7,63.6,66.3c-2.8,22.7-5.8,45.5-10.1,68C1014.8,395.9,1006.5,432.4,998.8,469z M654.9,867c2-7.1,4.6-12,4.5-16.8c-2.4-89.8-57.7-167.3-139-196c-89.2-31.5-198.4,7.6-247.3,88.1c-2.8,4.6-3.1,10.6-5.1,17.9c8-1.1,13.8-1.3,19.3-2.7c66.5-16.7,132.7-16.7,198.4,4.2c59.8,19,112.7,49.2,155.9,95.2C644.8,860.3,649.1,862.7,654.9,867z M872.1,519.2c-8.9-3.7-17.2-8.9-26.2-10.6c-52.2-9.6-99.4-29.5-138.3-66.5c-11.6-11.1-21.7-23.8-32.4-35.8c-5.7-6.4-11.9-13.8-21-10.5c-8.7,3.2-10.1,12.6-10.4,21.3c-3.4,104.4,108.7,176.3,202.3,130C857.4,541.6,866.1,534.2,872.1,519.2z M257.8,349.2c-2.3,13.7-0.3,23.6,5.5,33.2c53.8,89.7,185.9,90.6,241.1,1.7c5.9-9.4,6.9-19,5-31.8c-8.5,1.5-16.9,1.7-24.4,4.5c-66.6,24.9-132.5,22.2-198.4-2.9C277.8,350.5,267.6,350.7,257.8,349.2z M823.6,658.1c1.6-13,3.5-25.1,4.4-37.3c0.1-1.9-5.5-6.4-6.1-6c-14.2,8.8-29.1,16.9-41.7,27.7c-10.9,9.4-9.4,27.2,0.3,35.3c12.3,10.4,25.1,8.9,35.8-4.9C819.7,668.4,821.4,662.7,823.6,658.1z"
  />
</svg>
