<svg xmlns="http://www.w3.org/2000/svg" viewBox="260 320 520 460" fill="none">
  <path d="M600.6,712.9c-24.2,8.4-49.1,14.5-73.8,21.4c-7.8,2.2-13.7-0.2-16-8.7c-8.8-32.5-19.2-64.6-25.8-97.5
    c-6.5-32.2-10.5-65.1-13-97.9c-2.8-36.3,1.3-72.1,15.8-106.2c11.3-26.5,20.5-54.3,34.3-79.4c15.9-28.9,51-36.7,77.9-17.6
    c58,40.9,103.3,92.8,131.7,158.1c6.3,14.4,10.8,30,13.7,45.5c6.6,34.5-3,70.1-25.7,97c-10,11.9-20.5,23.4-32.1,36.6
    c-0.6,0.7,0.1,1.8,1,1.6c6.5-1.7,11.5-3.2,16.6-4.2c20.9-4.2,37.2,2.1,44.9,17c9.7,18.8,4.2,35.5-9.1,48.5
    c-18.7,18.3-36.2,19-61,21c-34.9,2.8-70.9-1-103.9-6c-0.1,0-0.1,0-0.2-0.1c-2.4-1-17.8-3.8-24.6-6.7c-0.8-0.4-0.8-1.6,0.1-1.8
    c33.6-8.5,77.1-21.6,102.4-42.8c0.9-0.7,0-2.1-1-1.6C635.4,696.9,618.6,706.7,600.6,712.9z M493,456c0.3,0.1,0.7,0.2,1,0.3
    c0.5,0.1,1-0.1,1.2-0.5c8.8-19.4,17.2-39.1,26.6-58.2c18.7-38.1,45.4-55.8,88-30.2c2.3,1.4,5.2,1.8,7.9,2.5
    c0.4,0.1,0.9-0.1,1.1-0.5l1.4-2.5c0.2-0.4,0.1-0.9-0.2-1.2c-9.1-7.2-17.8-15.1-27.5-21.4c-21.8-14.1-42-11.6-55.8,10.3
    c-14.8,23.5-26.2,49.2-38,74.4c-3.7,7.9-4.4,17.2-6.4,25.9C492.3,455.4,492.6,455.8,493,456z M715,721.7
    c13.3,0.4,25.7-11,26.2-24.1c0.5-12.5-11.7-25.7-24.3-26.3c-12.6-0.6-25.4,11.5-25.9,24.4C690.6,709.1,701.8,721.4,715,721.7z" fill="#0080FF"/>
  <path d="M493.6,719.8c-6.7-13.4-12.2-27.7-20.3-40.1c-33.7-51.4-61.8-105.7-82.6-163.5c-10.6-29.6-20.9-60.2-17.7-92.1
    c1.9-19.7,7.1-39.8,14.5-58.3c9.7-24.5,36.8-37.5,61.6-28.8c15.1,5.3,29.2,14.2,43.3,22.1c6.2,3.5,6.7,9,3.9,17.1
    c-11.8,34.3-23.4,68.8-32,104.1c-4,16.2-2.9,34.5-0.4,51.2c6.2,41,13.9,81.8,22.5,122.4c4.4,20.9,11.4,41.3,17.8,62.9
    c0.6,2.1-1.1,4.1-3.3,3.8c-2.8-0.4-5.2-0.8-7.6-1.1L493.6,719.8z" fill="#0080FF"/>
  <path d="M493.3,719.5c-2.6,0.6-6.5,2.6-7.6,1.6c-6.4-6-12.4-12.5-17.9-19.2c-24.6-30-51.4-57.6-85.3-77.3
    c-16.9-9.8-34.3-16.3-52.9-3.1c-19,13.5-20.3,38.7-2.2,52.4c8.1,6.1,17,7.5,25.8,2c6.8-4.3,9.7-9.4,3.9-17.7
    c-8.2-11.6-7.4-20.6,0.5-26.6c8.4-6.3,19.7-3,28.7,6.5c20.9,22.2,1.9,64.8-31.8,71.4c-28.5,5.5-59.1-16.5-64.3-45.4
    c-5.7-31.6,15.3-62.9,45.4-67.8c19.8-3.2,37.3,2.3,53.6,13.3c39.4,26.5,68.1,63,94.7,101.5c2.4,3.5,6.3,6,9.6,8.9
    C493.6,719.8,493.3,719.5,493.3,719.5z" fill="#0080FF"/>
  <path d="M626.4,765.5c-33.5-10.8-53-13.7-66.5-18c-6.1-1.9-13.7-7.7-14.6-8c-8.1-2.6-25.2-1.5-44.7-8.4
    c-9.1-3.2-13.4-6.8-20.6-12.2c-0.4-0.1-2.5-0.8-3.7-2.7c-0.8-1.2-1.1-2.5-0.7-3.8l0,0c0.8-2.5,4.1-3.7,7.3-2.7l146.4,46.6
    c3.2,1,9.5,7.6,8.7,10.1S629.7,766.5,626.4,765.5z" fill="#0080FF"/>
  <circle cx="470" cy="709" r="12" fill="#0080FF"/>
</svg>
